Pontano Sans-300.ufo
<glyph name="numbersign" format="1">
  <advance width="1221"/>
  <unicode hex="0023"/>
  <outline>
    <contour>
      <point x="147" y="0" type="line"/>
      <point x="273" y="1" type="line"/>
      <point x="387" y="554" type="line"/>
      <point x="723" y="554" type="line"/>
      <point x="612" y="0" type="line"/>
      <point x="738" y="1" type="line"/>
      <point x="852" y="554" type="line"/>
      <point x="1078" y="554" type="line"/>
      <point x="1105" y="647" type="line"/>
      <point x="871" y="647" type="line"/>
      <point x="923" y="903" type="line"/>
      <point x="1146" y="903" type="line"/>
      <point x="1175" y="997" type="line"/>
      <point x="943" y="997" type="line"/>
      <point x="1039" y="1464" type="line"/>
      <point x="908" y="1463" type="line"/>
      <point x="812" y="997" type="line"/>
      <point x="478" y="997" type="line"/>
      <point x="574" y="1464" type="line"/>
      <point x="443" y="1463" type="line"/>
      <point x="349" y="997" type="line"/>
      <point x="149" y="997" type="line"/>
      <point x="120" y="903" type="line"/>
      <point x="330" y="903" type="line"/>
      <point x="278" y="647" type="line"/>
      <point x="79" y="647" type="line"/>
      <point x="52" y="554" type="line"/>
      <point x="259" y="554" type="line"/>
    </contour>
    <contour>
      <point x="406" y="647" type="line"/>
      <point x="459" y="903" type="line"/>
      <point x="793" y="903" type="line"/>
      <point x="742" y="647" type="line"/>
    </contour>
  </outline>
</glyph>
<glyph name="percent" format="1">
  <advance width="1677"/>
  <unicode hex="0025"/>
  <outline>
    <contour>
      <point x="357" y="858" type="curve"/>
      <point x="222" y="858"/>
      <point x="156" y="980"/>
      <point x="156" y="1118" type="curve"/>
      <point x="156" y="1256"/>
      <point x="221" y="1379"/>
      <point x="357" y="1379" type="curve"/>
      <point x="493" y="1379"/>
      <point x="560" y="1259"/>
      <point x="560" y="1118" type="curve"/>
      <point x="560" y="980"/>
      <point x="493" y="858"/>
    </contour>
    <contour>
      <point x="357" y="770" type="curve"/>
      <point x="560" y="770"/>
      <point x="663" y="945"/>
      <point x="663" y="1118" type="curve"/>
      <point x="663" y="1291"/>
      <point x="560" y="1466"/>
      <point x="357" y="1466" type="curve"/>
      <point x="154" y="1466"/>
      <point x="51" y="1291"/>
      <point x="51" y="1118" type="curve"/>
      <point x="51" y="945"/>
      <point x="154" y="770"/>
    </contour>
    <contour>
      <point x="267" y="-12" type="line"/>
      <point x="1502" y="1417" type="line"/>
      <point x="1428" y="1479" type="line"/>
      <point x="192" y="50" type="line"/>
    </contour>
    <contour>
      <point x="1312" y="91" type="curve"/>
      <point x="1177" y="91"/>
      <point x="1111" y="213"/>
      <point x="1111" y="350" type="curve"/>
      <point x="1111" y="489"/>
      <point x="1176" y="611"/>
      <point x="1312" y="611" type="curve"/>
      <point x="1447" y="611"/>
      <point x="1515" y="492"/>
      <point x="1515" y="350" type="curve"/>
      <point x="1515" y="213"/>
      <point x="1448" y="91"/>
    </contour>
    <contour>
      <point x="1312" y="2" type="curve"/>
      <point x="1515" y="2"/>
      <point x="1618" y="178"/>
      <point x="1618" y="351" type="curve"/>
      <point x="1618" y="524"/>
      <point x="1515" y="699"/>
      <point x="1312" y="699" type="curve"/>
      <point x="1109" y="699"/>
      <point x="1006" y="524"/>
      <point x="1006" y="351" type="curve"/>
      <point x="1006" y="178"/>
      <point x="1109" y="2"/>
    </contour>
  </outline>
</glyph>
<glyph name="parenleft" format="1">
  <advance width="602"/>
  <unicode hex="0028"/>
  <outline>
    <contour>
      <point x="523" y="-181" type="curve"/>
      <point x="551" y="-100" type="line"/>
      <point x="276" y="-24"/>
      <point x="180" y="289"/>
      <point x="180" y="703" type="curve"/>
      <point x="180" y="1117"/>
      <point x="276" y="1430"/>
      <point x="551" y="1506" type="curve"/>
      <point x="523" y="1587" type="line"/>
      <point x="232" y="1518"/>
      <point x="38" y="1242"/>
      <point x="38" y="703" type="curve"/>
      <point x="38" y="164"/>
      <point x="232" y="-112"/>
    </contour>
  </outline>
</glyph>
<glyph name="parenright" format="1">
  <advance width="602"/>
  <unicode hex="0029"/>
  <outline>
    <contour>
      <point x="66" y="-181" type="line"/>
      <point x="357" y="-112"/>
      <point x="551" y="164"/>
      <point x="551" y="703" type="curve"/>
      <point x="551" y="1242"/>
      <point x="357" y="1518"/>
      <point x="66" y="1587" type="curve"/>
      <point x="38" y="1506" type="line"/>
      <point x="312" y="1430"/>
      <point x="409" y="1117"/>
      <point x="409" y="703" type="curve"/>
      <point x="409" y="289"/>
      <point x="312" y="-24"/>
      <point x="38" y="-100" type="curve"/>
    </contour>
  </outline>
</glyph>
<glyph name="two" format="1">
  <advance width="1246"/>
  <unicode hex="0032"/>
  <outline>
    <contour>
      <point x="194" y="0" type="curve"/>
      <point x="1053" y="0" type="line"/>
      <point x="1053" y="120" type="line"/>
      <point x="345" y="120" type="line"/>
      <point x="494" y="474"/>
      <point x="1049" y="606"/>
      <point x="1051" y="1058" type="curve" smooth="yes"/>
      <point x="1051" y="1360"/>
      <point x="867" y="1491"/>
      <point x="622" y="1491" type="curve" smooth="yes"/>
      <point x="397" y="1491"/>
      <point x="261" y="1386"/>
      <point x="150" y="1141" type="curve"/>
      <point x="272" y="1092" type="line"/>
      <point x="355" y="1279"/>
      <point x="454" y="1380"/>
      <point x="634" y="1380" type="curve" smooth="yes"/>
      <point x="794" y="1380"/>
      <point x="914" y="1269"/>
      <point x="914" y="1061" type="curve" smooth="yes"/>
      <point x="914" y="628"/>
      <point x="211" y="474"/>
    </contour>
  </outline>
</glyph>
<glyph name="six" format="1">
  <advance width="1198"/>
  <unicode hex="0036"/>
  <outline>
    <contour>
      <point x="620" y="-25" type="curve" smooth="yes"/>
      <point x="922" y="-25"/>
      <point x="1078" y="235"/>
      <point x="1078" y="485" type="curve" smooth="yes"/>
      <point x="1078" y="790"/>
      <point x="888" y="958"/>
      <point x="616" y="946" type="curve" smooth="yes"/>
      <point x="503" y="940"/>
      <point x="372" y="894"/>
      <point x="275" y="817" type="curve"/>
      <point x="288" y="1175"/>
      <point x="428" y="1375"/>
      <point x="640" y="1380" type="curve" smooth="yes"/>
      <point x="733" y="1382"/>
      <point x="832" y="1352"/>
      <point x="918" y="1291" type="curve"/>
      <point x="957" y="1396" type="line"/>
      <point x="863" y="1460"/>
      <point x="736" y="1491"/>
      <point x="638" y="1491" type="curve" smooth="yes"/>
      <point x="339" y="1491"/>
      <point x="125" y="1201"/>
      <point x="125" y="700" type="curve" smooth="yes"/>
      <point x="125" y="253"/>
      <point x="276" y="-25"/>
    </contour>
    <contour>
      <point x="620" y="87" type="curve" smooth="yes"/>
      <point x="337" y="87"/>
      <point x="275" y="367"/>
      <point x="275" y="661" type="curve" smooth="yes"/>
      <point x="275" y="704" type="line"/>
      <point x="374" y="782"/>
      <point x="491" y="835"/>
      <point x="604" y="840" type="curve" smooth="yes"/>
      <point x="835" y="848"/>
      <point x="935" y="724"/>
      <point x="935" y="481" type="curve" smooth="yes"/>
      <point x="935" y="235"/>
      <point x="811" y="87"/>
    </contour>
  </outline>
</glyph>
<glyph name="nine" format="1">
  <advance width="1198"/>
  <unicode hex="0039"/>
  <outline>
    <contour>
      <point x="565" y="-25" type="curve" smooth="yes"/>
      <point x="864" y="-25"/>
      <point x="1078" y="265"/>
      <point x="1078" y="766" type="curve" smooth="yes"/>
      <point x="1078" y="1214"/>
      <point x="927" y="1491"/>
      <point x="583" y="1491" type="curve" smooth="yes"/>
      <point x="281" y="1491"/>
      <point x="125" y="1230"/>
      <point x="125" y="981" type="curve" smooth="yes"/>
      <point x="125" y="676"/>
      <point x="315" y="508"/>
      <point x="587" y="520" type="curve" smooth="yes"/>
      <point x="700" y="526"/>
      <point x="831" y="572"/>
      <point x="927" y="649" type="curve"/>
      <point x="915" y="292"/>
      <point x="775" y="92"/>
      <point x="563" y="86" type="curve" smooth="yes"/>
      <point x="470" y="84"/>
      <point x="371" y="114"/>
      <point x="285" y="176" type="curve"/>
      <point x="246" y="70" type="line"/>
      <point x="340" y="6"/>
      <point x="467" y="-25"/>
    </contour>
    <contour>
      <point x="598" y="627" type="curve" smooth="yes"/>
      <point x="368" y="618"/>
      <point x="268" y="742"/>
      <point x="268" y="985" type="curve" smooth="yes"/>
      <point x="268" y="1232"/>
      <point x="392" y="1379"/>
      <point x="583" y="1379" type="curve" smooth="yes"/>
      <point x="866" y="1379"/>
      <point x="927" y="1100"/>
      <point x="927" y="805" type="curve" smooth="yes"/>
      <point x="927" y="762" type="line"/>
      <point x="829" y="684"/>
      <point x="711" y="631"/>
    </contour>
  </outline>
</glyph>
<glyph name="equal" format="1">
  <advance width="820"/>
  <unicode hex="003D"/>
  <outline>
    <contour>
      <point x="135" y="303" type="line"/>
      <point x="685" y="303" type="line"/>
      <point x="685" y="398" type="line"/>
      <point x="135" y="398" type="line"/>
    </contour>
    <contour>
      <point x="135" y="553" type="line"/>
      <point x="685" y="553" type="line"/>
      <point x="685" y="649" type="line"/>
      <point x="135" y="649" type="line"/>
    </contour>
  </outline>
</glyph>
<glyph name="question" format="1">
  <advance width="1010"/>
  <unicode hex="003F"/>
  <outline>
    <contour>
      <point x="366" y="358" type="curve"/>
      <point x="488" y="357" type="line"/>
      <point x="751" y="758"/>
      <point x="941" y="805"/>
      <point x="941" y="1094" type="curve" smooth="yes"/>
      <point x="941" y="1285"/>
      <point x="816" y="1491"/>
      <point x="497" y="1491" type="curve" smooth="yes"/>
      <point x="336" y="1491"/>
      <point x="154" y="1439"/>
      <point x="35" y="1250" type="curve"/>
      <point x="129" y="1180" type="line"/>
      <point x="159" y="1226"/>
      <point x="265" y="1380"/>
      <point x="488" y="1380" type="curve" smooth="yes"/>
      <point x="729" y="1380"/>
      <point x="802" y="1227"/>
      <point x="802" y="1089" type="curve" smooth="yes"/>
      <point x="802" y="827"/>
      <point x="628" y="793"/>
    </contour>
    <contour>
      <point x="354" y="0" type="line"/>
      <point x="510" y="0" type="line"/>
      <point x="510" y="213" type="line"/>
      <point x="354" y="213" type="line"/>
    </contour>
  </outline>
</glyph>
<glyph name="at" format="1">
  <advance width="1704"/>
  <unicode hex="0040"/>
  <outline>
    <contour>
      <point x="842" y="7" type="curve" smooth="yes"/>
      <point x="970" y="7"/>
      <point x="1119" y="37"/>
      <point x="1288" y="121" type="curve"/>
      <point x="1249" y="199" type="line"/>
      <point x="1087" y="127"/>
      <point x="949" y="104"/>
      <point x="838" y="104" type="curve" smooth="yes"/>
      <point x="424" y="104"/>
      <point x="237" y="391"/>
      <point x="237" y="697" type="curve" smooth="yes"/>
      <point x="237" y="1029"/>
      <point x="486" y="1386"/>
      <point x="886" y="1386" type="curve" smooth="yes"/>
      <point x="1189" y="1386"/>
      <point x="1476" y="1178"/>
      <point x="1476" y="838" type="curve" smooth="yes"/>
      <point x="1476" y="515"/>
      <point x="1373" y="405"/>
      <point x="1277" y="413" type="curve" smooth="yes"/>
      <point x="1196" y="419"/>
      <point x="1161" y="508"/>
      <point x="1176" y="593" type="curve" smooth="yes"/>
      <point x="1267" y="1147" type="line"/>
      <point x="1172" y="1147" type="line"/>
      <point x="1149" y="1074" type="line"/>
      <point x="1045" y="1142"/>
      <point x="960" y="1171"/>
      <point x="875" y="1171" type="curve" smooth="yes"/>
      <point x="623" y="1171"/>
      <point x="447" y="909"/>
      <point x="447" y="655" type="curve" smooth="yes"/>
      <point x="447" y="472"/>
      <point x="549" y="303"/>
      <point x="764" y="297" type="curve" smooth="yes"/>
      <point x="903" y="293"/>
      <point x="1057" y="396"/>
      <point x="1103" y="560" type="curve"/>
      <point x="1101" y="388"/>
      <point x="1200" y="336"/>
      <point x="1256" y="329" type="curve" smooth="yes"/>
      <point x="1434" y="308"/>
      <point x="1588" y="505"/>
      <point x="1588" y="826" type="curve" smooth="yes"/>
      <point x="1588" y="1217"/>
      <point x="1254" y="1486"/>
      <point x="883" y="1486" type="curve" smooth="yes"/>
      <point x="394" y="1486"/>
      <point x="117" y="1084"/>
      <point x="117" y="706" type="curve" smooth="yes"/>
      <point x="117" y="349"/>
      <point x="342" y="7"/>
    </contour>
    <contour>
      <point x="779" y="388" type="curve" smooth="yes"/>
      <point x="629" y="388"/>
      <point x="566" y="518"/>
      <point x="566" y="652" type="curve" smooth="yes"/>
      <point x="566" y="885"/>
      <point x="691" y="1081"/>
      <point x="887" y="1081" type="curve" smooth="yes"/>
      <point x="958" y="1081"/>
      <point x="1039" y="1056"/>
      <point x="1128" y="997" type="curve"/>
      <point x="1084" y="737" type="line" smooth="yes"/>
      <point x="1035" y="445"/>
      <point x="869" y="388"/>
    </contour>
  </outline>
</glyph>
<glyph name="F" format="1">
  <advance width="1180"/>
  <unicode hex="0046"/>
  <outline>
    <contour>
      <point x="154" y="0" type="line"/>
      <point x="292" y="0" type="line"/>
      <point x="292" y="719" type="line"/>
      <point x="1009" y="719" type="line"/>
      <point x="1009" y="828" type="line"/>
      <point x="292" y="828" type="line"/>
      <point x="292" y="1357" type="line"/>
      <point x="1117" y="1357" type="line"/>
      <point x="1117" y="1464" type="line"/>
      <point x="154" y="1464" type="line"/>
    </contour>
    <contour>
      <point x="637" y="1464" type="move" name="top"/>
    </contour>
  </outline>
</glyph>
<glyph name="L" format="1">
  <advance width="1019"/>
  <unicode hex="004C"/>
  <outline>
    <contour>
      <point x="154" y="0" type="line"/>
      <point x="1041" y="0" type="line"/>
      <point x="1041" y="107" type="line"/>
      <point x="292" y="107" type="line"/>
      <point x="292" y="1464" type="line"/>
      <point x="154" y="1464" type="line"/>
    </contour>
    <contour>
      <point x="614" y="1474" type="move" name="top"/>
    </contour>
    <contour>
      <point x="412" y="1023" type="move" name="caron.alt"/>
    </contour>
    <contour>
      <point x="590" y="0" type="move" name="bot"/>
    </contour>
  </outline>
</glyph>
<glyph name="N" format="1">
  <advance width="1499"/>
  <unicode hex="004E"/>
  <outline>
    <contour>
      <point x="154" y="0" type="line"/>
      <point x="280" y="0" type="line"/>
      <point x="280" y="1299" type="line"/>
      <point x="1220" y="0" type="line"/>
      <point x="1346" y="0" type="line"/>
      <point x="1346" y="1464" type="line"/>
      <point x="1223" y="1464" type="line"/>
      <point x="1223" y="210" type="line"/>
      <point x="309" y="1464" type="line"/>
      <point x="154" y="1464" type="line"/>
    </contour>
    <contour>
      <point x="791" y="1475" type="move" name="top"/>
    </contour>
    <contour>
      <point x="768" y="0" type="move" name="bot"/>
    </contour>
  </outline>
</glyph>
<glyph name="P" format="1">
  <advance width="1248"/>
  <unicode hex="0050"/>
  <outline>
    <contour>
      <point x="154" y="0" type="line"/>
      <point x="292" y="0" type="line"/>
      <point x="292" y="636" type="line"/>
      <point x="473" y="636" type="line" smooth="yes"/>
      <point x="985" y="636"/>
      <point x="1185" y="724"/>
      <point x="1185" y="1063" type="curve" smooth="yes"/>
      <point x="1185" y="1360"/>
      <point x="1011" y="1464"/>
      <point x="535" y="1464" type="curve" smooth="yes"/>
      <point x="154" y="1464" type="line"/>
    </contour>
    <contour>
      <point x="292" y="743" type="line"/>
      <point x="292" y="1357" type="line"/>
      <point x="511" y="1357" type="line" smooth="yes"/>
      <point x="902" y="1357"/>
      <point x="1045" y="1308"/>
      <point x="1045" y="1055" type="curve" smooth="yes"/>
      <point x="1045" y="805"/>
      <point x="899" y="745"/>
      <point x="531" y="743" type="curve" smooth="yes"/>
    </contour>
    <contour>
      <point x="634" y="1464" type="move" name="top"/>
    </contour>
  </outline>
</glyph>
<glyph name="Q" format="1">
  <advance width="1454"/>
  <unicode hex="0051"/>
  <outline>
    <contour>
      <point x="1264" y="-343" type="line"/>
      <point x="1366" y="-265" type="line"/>
      <point x="1106" y="89" type="line"/>
      <point x="1253" y="203"/>
      <point x="1331" y="413"/>
      <point x="1331" y="741" type="curve" smooth="yes"/>
      <point x="1331" y="1280"/>
      <point x="1102" y="1488"/>
      <point x="723" y="1488" type="curve" smooth="yes"/>
      <point x="345" y="1488"/>
      <point x="118" y="1281"/>
      <point x="118" y="740" type="curve" smooth="yes"/>
      <point x="118" y="187"/>
      <point x="340" y="-24"/>
      <point x="722" y="-24" type="curve" smooth="yes"/>
      <point x="831" y="-24"/>
      <point x="927" y="-8"/>
      <point x="1008" y="29" type="curve"/>
    </contour>
    <contour>
      <point x="725" y="86" type="curve" smooth="yes"/>
      <point x="382" y="86"/>
      <point x="265" y="298"/>
      <point x="265" y="741" type="curve" smooth="yes"/>
      <point x="265" y="1135"/>
      <point x="368" y="1378"/>
      <point x="723" y="1378" type="curve" smooth="yes"/>
      <point x="1080" y="1378"/>
      <point x="1185" y="1135"/>
      <point x="1185" y="740" type="curve" smooth="yes"/>
      <point x="1185" y="294"/>
      <point x="1066" y="86"/>
    </contour>
    <contour>
      <point x="746" y="1464" type="move" name="top"/>
    </contour>
  </outline>
</glyph>
<glyph name="R" format="1">
  <advance width="1296"/>
  <unicode hex="0052"/>
  <outline>
    <contour>
      <point x="154" y="0" type="line"/>
      <point x="292" y="0" type="line"/>
      <point x="292" y="676" type="line"/>
      <point x="757" y="676" type="line"/>
      <point x="1089" y="0" type="line"/>
      <point x="1237" y="0" type="line"/>
      <point x="898" y="695" type="line"/>
      <point x="1108" y="733"/>
      <point x="1214" y="868"/>
      <point x="1214" y="1082" type="curve" smooth="yes"/>
      <point x="1214" y="1347"/>
      <point x="1065" y="1464"/>
      <point x="678" y="1464" type="curve" smooth="yes"/>
      <point x="154" y="1464" type="line"/>
    </contour>
    <contour>
      <point x="292" y="782" type="line"/>
      <point x="292" y="1357" type="line"/>
      <point x="669" y="1357" type="line" smooth="yes"/>
      <point x="870" y="1357"/>
      <point x="1073" y="1344"/>
      <point x="1073" y="1080" type="curve" smooth="yes"/>
      <point x="1073" y="820"/>
      <point x="892" y="782"/>
      <point x="678" y="782" type="curve" smooth="yes"/>
    </contour>
    <contour>
      <point x="636" y="1464" type="move" name="top"/>
    </contour>
    <contour>
      <point x="662" y="0" type="move" name="bot"/>
    </contour>
  </outline>
</glyph>
<glyph name="T" format="1">
  <advance width="1119"/>
  <unicode hex="0054"/>
  <outline>
    <contour>
      <point x="496" y="0" type="line"/>
      <point x="635" y="0" type="line"/>
      <point x="635" y="1357" type="line"/>
      <point x="1110" y="1357" type="line"/>
      <point x="1110" y="1464" type="line"/>
      <point x="9" y="1464" type="line"/>
      <point x="9" y="1357" type="line"/>
      <point x="496" y="1357" type="line"/>
    </contour>
    <contour>
      <point x="571" y="1464" type="move" name="top"/>
    </contour>
    <contour>
      <point x="567" y="0" type="move" name="bot"/>
    </contour>
  </outline>
</glyph>
<glyph name="U" format="1">
  <advance width="1341"/>
  <unicode hex="0055"/>
  <outline>
    <contour>
      <point x="668" y="-24" type="curve" smooth="yes"/>
      <point x="1043" y="-24"/>
      <point x="1218" y="157"/>
      <point x="1218" y="577" type="curve" smooth="yes"/>
      <point x="1218" y="1464" type="line"/>
      <point x="1079" y="1464" type="line"/>
      <point x="1079" y="572" type="line" smooth="yes"/>
      <point x="1079" y="277"/>
      <point x="1003" y="86"/>
      <point x="674" y="86" type="curve" smooth="yes"/>
      <point x="342" y="86"/>
      <point x="262" y="270"/>
      <point x="262" y="572" type="curve" smooth="yes"/>
      <point x="262" y="1464" type="line"/>
      <point x="124" y="1464" type="line"/>
      <point x="124" y="570" type="line" smooth="yes"/>
      <point x="124" y="149"/>
      <point x="307" y="-24"/>
    </contour>
    <contour>
      <point x="710" y="1464" type="move" name="top"/>
    </contour>
    <contour>
      <point x="805" y="0" type="move" name="ogonek"/>
    </contour>
  </outline>
</glyph>
<glyph name="Y" format="1">
  <advance width="1157"/>
  <unicode hex="0059"/>
  <outline>
    <contour>
      <point x="510" y="0" type="line"/>
      <point x="648" y="0" type="line"/>
      <point x="648" y="548" type="line"/>
      <point x="1160" y="1464" type="line"/>
      <point x="1012" y="1464" type="line"/>
      <point x="580" y="674" type="line"/>
      <point x="146" y="1464" type="line"/>
      <point x="-3" y="1464" type="line"/>
      <point x="510" y="549" type="line"/>
    </contour>
    <contour>
      <point x="616" y="1464" type="move" name="top"/>
    </contour>
  </outline>
</glyph>
<glyph name="d" format="1">
  <advance width="1079"/>
  <unicode hex="0064"/>
  <outline>
    <contour>
      <point x="508" y="-24" type="curve" smooth="yes"/>
      <point x="685" y="-24"/>
      <point x="785" y="64"/>
      <point x="838" y="187" type="curve"/>
      <point x="845" y="0" type="line"/>
      <point x="950" y="0" type="line"/>
      <point x="950" y="1474" type="line"/>
      <point x="815" y="1474" type="line"/>
      <point x="815" y="870" type="line"/>
      <point x="750" y="981"/>
      <point x="644" y="1044"/>
      <point x="507" y="1044" type="curve" smooth="yes"/>
      <point x="261" y="1044"/>
      <point x="101" y="854"/>
      <point x="101" y="500" type="curve" smooth="yes"/>
      <point x="101" y="192"/>
      <point x="247" y="-24"/>
    </contour>
    <contour>
      <point x="512" y="73" type="curve" smooth="yes"/>
      <point x="337" y="82"/>
      <point x="238" y="226"/>
      <point x="238" y="513" type="curve" smooth="yes"/>
      <point x="238" y="793"/>
      <point x="337" y="947"/>
      <point x="515" y="947" type="curve" smooth="yes"/>
      <point x="707" y="946"/>
      <point x="822" y="809"/>
      <point x="822" y="520" type="curve" smooth="yes"/>
      <point x="822" y="196"/>
      <point x="705" y="63"/>
    </contour>
    <contour>
      <point x="957" y="1023" type="move" name="caron.alt"/>
    </contour>
  </outline>
</glyph>
<glyph name="e" format="1">
  <advance width="1022"/>
  <unicode hex="0065"/>
  <outline>
    <contour>
      <point x="550" y="-24" type="curve" smooth="yes"/>
      <point x="707" y="-23"/>
      <point x="874" y="65"/>
      <point x="921" y="243" type="curve"/>
      <point x="819" y="266" type="line"/>
      <point x="784" y="155"/>
      <point x="687" y="73"/>
      <point x="547" y="73" type="curve" smooth="yes"/>
      <point x="332" y="73"/>
      <point x="236" y="266"/>
      <point x="236" y="503" type="curve"/>
      <point x="943" y="503" type="line"/>
      <point x="945" y="520"/>
      <point x="946" y="552"/>
      <point x="946" y="561" type="curve" smooth="yes"/>
      <point x="946" y="833"/>
      <point x="825" y="1044"/>
      <point x="540" y="1044" type="curve" smooth="yes"/>
      <point x="258" y="1044"/>
      <point x="101" y="822"/>
      <point x="101" y="512" type="curve" smooth="yes"/>
      <point x="101" y="230"/>
      <point x="234" y="-24"/>
    </contour>
    <contour>
      <point x="236" y="593" type="line"/>
      <point x="253" y="788"/>
      <point x="352" y="947"/>
      <point x="539" y="947" type="curve" smooth="yes"/>
      <point x="738" y="947"/>
      <point x="816" y="810"/>
      <point x="819" y="593" type="curve"/>
    </contour>
    <contour>
      <point x="534" y="1023" type="move" name="top"/>
    </contour>
    <contour>
      <point x="634" y="0" type="move" name="ogonek"/>
    </contour>
  </outline>
</glyph>
<glyph name="h" format="1">
  <advance width="1082"/>
  <unicode hex="0068"/>
  <outline>
    <contour>
      <point x="128" y="0" type="line"/>
      <point x="264" y="0" type="line"/>
      <point x="264" y="538" type="line" smooth="yes"/>
      <point x="271" y="771"/>
      <point x="354" y="947"/>
      <point x="603" y="947" type="curve" smooth="yes"/>
      <point x="783" y="947"/>
      <point x="826" y="813"/>
      <point x="826" y="603" type="curve" smooth="yes"/>
      <point x="826" y="0" type="line"/>
      <point x="961" y="0" type="line"/>
      <point x="961" y="583" type="line" smooth="yes"/>
      <point x="961" y="789"/>
      <point x="944" y="1044"/>
      <point x="621" y="1044" type="curve" smooth="yes"/>
      <point x="453" y="1044"/>
      <point x="332" y="974"/>
      <point x="263" y="845" type="curve"/>
      <point x="263" y="1474" type="line"/>
      <point x="128" y="1474" type="line"/>
    </contour>
    <contour>
      <point x="605" y="1175" type="move" name="top"/>
    </contour>
  </outline>
</glyph>
<glyph name="i" format="1">
  <advance width="419"/>
  <unicode hex="0069"/>
  <outline>
    <contour>
      <point x="146" y="0" type="line"/>
      <point x="281" y="0" type="line"/>
      <point x="281" y="1023" type="line"/>
      <point x="146" y="1023" type="line"/>
    </contour>
    <contour>
      <point x="146" y="1231" type="line"/>
      <point x="283" y="1231" type="line"/>
      <point x="283" y="1443" type="line"/>
      <point x="146" y="1443" type="line"/>
    </contour>
  </outline>
</glyph>
<glyph name="j" format="1">
  <advance width="479"/>
  <unicode hex="006A"/>
  <outline>
    <contour>
      <point x="141" y="-320" type="curve" smooth="yes"/>
      <point x="322" y="-320"/>
      <point x="351" y="-208"/>
      <point x="351" y="-9" type="curve" smooth="yes"/>
      <point x="351" y="1023" type="line"/>
      <point x="216" y="1023" type="line"/>
      <point x="216" y="-91" type="line" smooth="yes"/>
      <point x="216" y="-183"/>
      <point x="179" y="-207"/>
      <point x="120" y="-207" type="curve" smooth="yes"/>
      <point x="65" y="-207"/>
      <point x="30" y="-188"/>
      <point x="4" y="-177" type="curve"/>
      <point x="-24" y="-279" type="line"/>
      <point x="16" y="-300"/>
      <point x="70" y="-320"/>
    </contour>
    <contour>
      <point x="213" y="1231" type="line"/>
      <point x="350" y="1231" type="line"/>
      <point x="350" y="1443" type="line"/>
      <point x="213" y="1443" type="line"/>
    </contour>
    <contour>
      <point x="284" y="1023" type="move" name="top"/>
    </contour>
    <contour>
      <point x="284" y="1023" type="move" name="_top"/>
    </contour>
  </outline>
</glyph>
<glyph name="u" format="1">
  <advance width="1087"/>
  <unicode hex="0075"/>
  <outline>
    <contour>
      <point x="477" y="-24" type="curve" smooth="yes"/>
      <point x="646" y="-24"/>
      <point x="759" y="45"/>
      <point x="823" y="175" type="curve"/>
      <point x="823" y="0" type="line"/>
      <point x="958" y="0" type="line"/>
      <point x="957" y="1023" type="line"/>
      <point x="823" y="1023" type="line"/>
      <point x="822" y="516" type="line" smooth="yes"/>
      <point x="822" y="269"/>
      <point x="741" y="72"/>
      <point x="505" y="72" type="curve" smooth="yes"/>
      <point x="304" y="72"/>
      <point x="260" y="200"/>
      <point x="260" y="428" type="curve" smooth="yes"/>
      <point x="260" y="1023" type="line"/>
      <point x="125" y="1023" type="line"/>
      <point x="125" y="465" type="line" smooth="yes"/>
      <point x="125" y="256"/>
      <point x="135" y="-24"/>
    </contour>
    <contour>
      <point x="537" y="1023" type="move" name="top"/>
    </contour>
  </outline>
</glyph>
<glyph name="v" format="1">
  <advance width="951"/>
  <unicode hex="0076"/>
  <outline>
    <contour>
      <point x="409" y="0" type="line"/>
      <point x="529" y="0" type="line"/>
      <point x="924" y="1023" type="line"/>
      <point x="792" y="1023" type="line"/>
      <point x="475" y="164" type="line"/>
      <point x="161" y="1023" type="line"/>
      <point x="24" y="1023" type="line"/>
    </contour>
  </outline>
</glyph>
<glyph name="x" format="1">
  <advance width="965"/>
  <unicode hex="0078"/>
  <outline>
    <contour>
      <point x="34" y="0" type="line"/>
      <point x="180" y="0" type="line"/>
      <point x="478" y="420" type="line"/>
      <point x="785" y="0" type="line"/>
      <point x="934" y="0" type="line"/>
      <point x="554" y="518" type="line"/>
      <point x="921" y="1023" type="line"/>
      <point x="775" y="1023" type="line"/>
      <point x="485" y="612" type="line"/>
      <point x="184" y="1023" type="line"/>
      <point x="35" y="1023" type="line"/>
      <point x="408" y="516" type="line"/>
    </contour>
  </outline>
</glyph>
<glyph name="cent" format="1">
  <advance width="982"/>
  <unicode hex="00A2"/>
  <outline>
    <contour>
      <point x="484" y="-208" type="line"/>
      <point x="572" y="-208" type="line"/>
      <point x="572" y="1253" type="line"/>
      <point x="484" y="1253" type="line"/>
    </contour>
    <component base="c"/>
  </outline>
</glyph>
<glyph name="sterling" format="1">
  <advance width="1168"/>
  <unicode hex="00A3"/>
  <outline>
    <contour>
      <point x="219" y="-26" type="line"/>
      <point x="418" y="29"/>
      <point x="567" y="42"/>
      <point x="688" y="42" type="curve" smooth="yes"/>
      <point x="818" y="42"/>
      <point x="879" y="21"/>
      <point x="979" y="0" type="curve"/>
      <point x="1006" y="110" type="line"/>
      <point x="940" y="133"/>
      <point x="819" y="162"/>
      <point x="742" y="162" type="curve" smooth="yes"/>
      <point x="618" y="162"/>
      <point x="489" y="154"/>
      <point x="306" y="87" type="curve"/>
      <point x="354" y="177"/>
      <point x="398" y="310"/>
      <point x="394" y="491" type="curve" smooth="yes"/>
      <point x="393" y="545"/>
      <point x="382" y="625"/>
      <point x="376" y="697" type="curve"/>
      <point x="773" y="697" type="line"/>
      <point x="773" y="794" type="line"/>
      <point x="369" y="794" type="line"/>
      <point x="364" y="851"/>
      <point x="350" y="955"/>
      <point x="350" y="1007" type="curve" smooth="yes"/>
      <point x="350" y="1262"/>
      <point x="443" y="1380"/>
      <point x="651" y="1380" type="curve" smooth="yes"/>
      <point x="733" y="1380"/>
      <point x="854" y="1356"/>
      <point x="890" y="1135" type="curve"/>
      <point x="1003" y="1152" type="line"/>
      <point x="971" y="1365"/>
      <point x="876" y="1491"/>
      <point x="645" y="1491" type="curve" smooth="yes"/>
      <point x="359" y="1491"/>
      <point x="217" y="1321"/>
      <point x="217" y="988" type="curve" smooth="yes"/>
      <point x="217" y="942"/>
      <point x="231" y="844"/>
      <point x="235" y="794" type="curve"/>
      <point x="67" y="794" type="line"/>
      <point x="67" y="697" type="line"/>
      <point x="243" y="697" type="line"/>
      <point x="251" y="634"/>
      <point x="268" y="556"/>
      <point x="268" y="507" type="curve" smooth="yes"/>
      <point x="268" y="309"/>
      <point x="224" y="179"/>
      <point x="162" y="53" type="curve"/>
    </contour>
  </outline>
</glyph>
<glyph name="brokenbar" format="1">
  <advance width="416"/>
  <unicode hex="00A6"/>
  <outline>
    <contour>
      <point x="138" y="-198" type="line"/>
      <point x="277" y="-198" type="line"/>
      <point x="277" y="462" type="line"/>
      <point x="138" y="462" type="line"/>
    </contour>
    <contour>
      <point x="138" y="854" type="line"/>
      <point x="277" y="854" type="line"/>
      <point x="277" y="1504" type="line"/>
      <point x="138" y="1504" type="line"/>
    </contour>
  </outline>
</glyph>
<glyph name="copyright" format="1">
  <advance width="1702"/>
  <unicode hex="00A9"/>
  <outline>
    <contour>
      <point x="858" y="324" type="curve" smooth="yes"/>
      <point x="994" y="324"/>
      <point x="1096" y="393"/>
      <point x="1140" y="541" type="curve"/>
      <point x="1077" y="563" type="line"/>
      <point x="1044" y="460"/>
      <point x="983" y="391"/>
      <point x="862" y="391" type="curve" smooth="yes"/>
      <point x="666" y="391"/>
      <point x="602" y="524"/>
      <point x="602" y="779" type="curve"/>
      <point x="602" y="1034"/>
      <point x="666" y="1166"/>
      <point x="862" y="1166" type="curve" smooth="yes"/>
      <point x="983" y="1166"/>
      <point x="1044" y="1098"/>
      <point x="1077" y="995" type="curve"/>
      <point x="1140" y="1017" type="line"/>
      <point x="1096" y="1165"/>
      <point x="994" y="1234"/>
      <point x="858" y="1234" type="curve" smooth="yes"/>
      <point x="644" y="1234"/>
      <point x="525" y="1103"/>
      <point x="525" y="779" type="curve"/>
      <point x="525" y="455"/>
      <point x="644" y="324"/>
    </contour>
    <contour>
      <point x="849" y="96" type="curve" smooth="yes"/>
      <point x="479" y="96"/>
      <point x="177" y="361"/>
      <point x="177" y="773" type="curve" smooth="yes"/>
      <point x="177" y="1176"/>
      <point x="480" y="1454"/>
      <point x="850" y="1454" type="curve" smooth="yes"/>
      <point x="1221" y="1454"/>
      <point x="1526" y="1146"/>
      <point x="1526" y="773" type="curve" smooth="yes"/>
      <point x="1526" y="401"/>
      <point x="1220" y="96"/>
    </contour>
    <contour>
      <point x="850" y="53" type="curve" smooth="yes"/>
      <point x="1251" y="53"/>
      <point x="1579" y="375"/>
      <point x="1579" y="774" type="curve" smooth="yes"/>
      <point x="1579" y="1175"/>
      <point x="1251" y="1497"/>
      <point x="850" y="1497" type="curve" smooth="yes"/>
      <point x="451" y="1497"/>
      <point x="123" y="1205"/>
      <point x="123" y="774" type="curve" smooth="yes"/>
      <point x="123" y="335"/>
      <point x="451" y="53"/>
    </contour>
  </outline>
</glyph>
<glyph name="ordfeminine" format="1">
  <advance width="946"/>
  <unicode hex="00AA"/>
  <outline>
    <contour>
      <point x="396" y="583" type="curve" smooth="yes"/>
      <point x="527" y="583"/>
      <point x="606" y="629"/>
      <point x="680" y="692" type="curve"/>
      <point x="693" y="603" type="line"/>
      <point x="795" y="603" type="line"/>
      <point x="795" y="1148" type="line" smooth="yes"/>
      <point x="795" y="1366"/>
      <point x="688" y="1474"/>
      <point x="495" y="1474" type="curve" smooth="yes"/>
      <point x="398" y="1474"/>
      <point x="260" y="1422"/>
      <point x="185" y="1340" type="curve"/>
      <point x="185" y="1340"/>
      <point x="259" y="1274"/>
      <point x="259" y="1273" type="curve"/>
      <point x="316" y="1329"/>
      <point x="409" y="1378"/>
      <point x="497" y="1378" type="curve" smooth="yes"/>
      <point x="592" y="1378"/>
      <point x="678" y="1327"/>
      <point x="678" y="1178" type="curve" smooth="yes"/>
      <point x="678" y="1110" type="line"/>
      <point x="580" y="1097" type="line" smooth="yes"/>
      <point x="338" y="1066"/>
      <point x="158" y="1018"/>
      <point x="158" y="804" type="curve" smooth="yes"/>
      <point x="158" y="656"/>
      <point x="272" y="584"/>
    </contour>
    <contour>
      <point x="392" y="660" type="curve" smooth="yes"/>
      <point x="290" y="674"/>
      <point x="261" y="744"/>
      <point x="267" y="830" type="curve" smooth="yes"/>
      <point x="273" y="936"/>
      <point x="358" y="984"/>
      <point x="574" y="1012" type="curve" smooth="yes"/>
      <point x="678" y="1026" type="line"/>
      <point x="678" y="767" type="line"/>
      <point x="600" y="698"/>
      <point x="473" y="649"/>
    </contour>
  </outline>
</glyph>
<glyph name="registered" format="1">
  <advance width="1702"/>
  <unicode hex="00AE"/>
  <outline>
    <contour>
      <point x="1098" y="379" type="line"/>
      <point x="1185" y="379" type="line"/>
      <point x="999" y="793" type="line"/>
      <point x="1120" y="825"/>
      <point x="1179" y="900"/>
      <point x="1179" y="1017" type="curve" smooth="yes"/>
      <point x="1179" y="1173"/>
      <point x="1071" y="1248"/>
      <point x="857" y="1248" type="curve" smooth="yes"/>
      <point x="578" y="1248" type="line"/>
      <point x="578" y="381" type="line"/>
      <point x="657" y="381" type="line"/>
      <point x="657" y="780" type="line"/>
      <point x="918" y="780" type="line"/>
    </contour>
    <contour>
      <point x="660" y="844" type="line"/>
      <point x="660" y="1187" type="line"/>
      <point x="848" y="1187" type="line" smooth="yes"/>
      <point x="960" y="1187"/>
      <point x="1096" y="1172"/>
      <point x="1096" y="1015" type="curve" smooth="yes"/>
      <point x="1096" y="864"/>
      <point x="988" y="844"/>
      <point x="854" y="844" type="curve" smooth="yes"/>
    </contour>
    <contour>
      <point x="849" y="96" type="curve" smooth="yes"/>
      <point x="479" y="96"/>
      <point x="177" y="361"/>
      <point x="177" y="773" type="curve" smooth="yes"/>
      <point x="177" y="1176"/>
      <point x="480" y="1454"/>
      <point x="850" y="1454" type="curve" smooth="yes"/>
      <point x="1221" y="1454"/>
      <point x="1526" y="1146"/>
      <point x="1526" y="773" type="curve" smooth="yes"/>
      <point x="1526" y="401"/>
      <point x="1220" y="96"/>
    </contour>
    <contour>
      <point x="850" y="53" type="curve" smooth="yes"/>
      <point x="1251" y="53"/>
      <point x="1579" y="375"/>
      <point x="1579" y="774" type="curve" smooth="yes"/>
      <point x="1579" y="1175"/>
      <point x="1251" y="1497"/>
      <point x="850" y="1497" type="curve" smooth="yes"/>
      <point x="451" y="1497"/>
      <point x="123" y="1205"/>
      <point x="123" y="774" type="curve" smooth="yes"/>
      <point x="123" y="335"/>
      <point x="451" y="53"/>
    </contour>
  </outline>
</glyph>
<glyph name="macron" format="1">
  <advance width="724"/>
  <unicode hex="00AF"/>
  <outline>
    <contour>
      <point x="128" y="1267" type="line"/>
      <point x="582" y="1267" type="line"/>
      <point x="582" y="1362" type="line"/>
      <point x="128" y="1362" type="line"/>
    </contour>
    <contour>
      <point x="351" y="1023" type="move" name="_top"/>
    </contour>
  </outline>
</glyph>
<glyph name="cedilla" format="1">
  <advance width="435"/>
  <unicode hex="00B8"/>
  <outline>
    <contour>
      <point x="215" y="-467" type="curve" smooth="yes"/>
      <point x="312" y="-467"/>
      <point x="347" y="-358"/>
      <point x="347" y="-266" type="curve" smooth="yes"/>
      <point x="347" y="-90" type="line"/>
      <point x="154" y="-90" type="line"/>
      <point x="154" y="-251" type="line"/>
      <point x="251" y="-251" type="line"/>
      <point x="251" y="-374"/>
      <point x="239" y="-404"/>
      <point x="210" y="-404" type="curve" smooth="yes"/>
      <point x="200" y="-404"/>
      <point x="189" y="-400"/>
      <point x="174" y="-396" type="curve"/>
      <point x="174" y="-458" type="line"/>
      <point x="188" y="-464"/>
      <point x="201" y="-467"/>
    </contour>
    <contour>
      <point x="252" y="0" type="move" name="_bot"/>
    </contour>
  </outline>
</glyph>
<glyph name="onehalf" format="1">
  <advance width="1567"/>
  <unicode hex="00BD"/>
  <outline>
    <contour>
      <point x="971" y="0" type="line"/>
      <point x="1444" y="0" type="line"/>
      <point x="1444" y="75" type="line"/>
      <point x="1094" y="75" type="line"/>
      <point x="1311" y="265"/>
      <point x="1456" y="339"/>
      <point x="1443" y="493" type="curve" smooth="yes"/>
      <point x="1430" y="636"/>
      <point x="1321" y="712"/>
      <point x="1204" y="712" type="curve" smooth="yes"/>
      <point x="1098" y="712"/>
      <point x="993" y="658"/>
      <point x="950" y="537" type="curve"/>
      <point x="1035" y="494" type="line"/>
      <point x="1053" y="578"/>
      <point x="1132" y="624"/>
      <point x="1203" y="624" type="curve" smooth="yes"/>
      <point x="1271" y="624"/>
      <point x="1335" y="580"/>
      <point x="1344" y="486" type="curve" smooth="yes"/>
      <point x="1356" y="363"/>
      <point x="1228" y="295"/>
      <point x="970" y="78" type="curve"/>
    </contour>
    <contour>
      <point x="314" y="769" type="line"/>
      <point x="421" y="769" type="line"/>
      <point x="421" y="1464" type="line"/>
      <point x="323" y="1464" type="line"/>
      <point x="176" y="1398" type="line"/>
      <point x="196" y="1312" type="line"/>
      <point x="314" y="1370" type="line"/>
    </contour>
    <contour>
      <point x="200" y="-14" type="line"/>
      <point x="1435" y="1415" type="line"/>
      <point x="1363" y="1478" type="line"/>
      <point x="127" y="49" type="line"/>
    </contour>
  </outline>
</glyph>
<glyph name="AE" format="1">
  <advance width="2030"/>
  <unicode hex="00C6"/>
  <outline>
    <contour>
      <point x="-35" y="0" type="line"/>
      <point x="117" y="0" type="line"/>
      <point x="367" y="402" type="line"/>
      <point x="974" y="402" type="line"/>
      <point x="974" y="0" type="line"/>
      <point x="2015" y="0" type="line"/>
      <point x="2015" y="106" type="line"/>
      <point x="1111" y="106" type="line"/>
      <point x="1111" y="726" type="line"/>
      <point x="1842" y="726" type="line"/>
      <point x="1843" y="835" type="line"/>
      <point x="1111" y="835" type="line"/>
      <point x="1111" y="1358" type="line"/>
      <point x="2005" y="1358" type="line"/>
      <point x="2005" y="1464" type="line"/>
      <point x="875" y="1464" type="line"/>
    </contour>
    <contour>
      <point x="424" y="506" type="line"/>
      <point x="974" y="1409" type="line"/>
      <point x="974" y="506" type="line"/>
    </contour>
    <contour>
      <point x="1373" y="1464" type="move" name="top"/>
    </contour>
  </outline>
</glyph>
<glyph name="Eth" format="1">
  <advance width="1444"/>
  <unicode hex="00D0"/>
  <outline>
    <contour>
      <point x="0" y="704" type="line"/>
      <point x="548" y="704" type="line"/>
      <point x="548" y="786" type="line"/>
      <point x="0" y="786" type="line"/>
    </contour>
    <component base="D"/>
  </outline>
</glyph>
<glyph name="Oslash" format="1">
  <advance width="1497"/>
  <unicode hex="00D8"/>
  <outline>
    <contour>
      <point x="316" y="-203" type="line"/>
      <point x="1206" y="1615" type="line"/>
      <point x="1126" y="1657" type="line"/>
      <point x="235" y="-161" type="line"/>
    </contour>
    <component base="O"/>
  </outline>
</glyph>
<glyph name="Thorn" format="1">
  <advance width="1261"/>
  <unicode hex="00DE"/>
  <outline>
    <contour>
      <point x="140" y="0" type="line"/>
      <point x="288" y="0" type="line"/>
      <point x="288" y="335" type="line"/>
      <point x="501" y="335" type="line" smooth="yes"/>
      <point x="1003" y="335"/>
      <point x="1201" y="441"/>
      <point x="1201" y="772" type="curve" smooth="yes"/>
      <point x="1201" y="1061"/>
      <point x="1028" y="1193"/>
      <point x="560" y="1193" type="curve" smooth="yes"/>
      <point x="288" y="1193" type="line"/>
      <point x="288" y="1464" type="line"/>
      <point x="140" y="1464" type="line"/>
    </contour>
    <contour>
      <point x="288" y="443" type="line"/>
      <point x="288" y="1085" type="line"/>
      <point x="537" y="1085" type="line" smooth="yes"/>
      <point x="919" y="1085"/>
      <point x="1060" y="1007"/>
      <point x="1060" y="764" type="curve" smooth="yes"/>
      <point x="1060" y="525"/>
      <point x="919" y="445"/>
      <point x="557" y="443" type="curve" smooth="yes"/>
    </contour>
  </outline>
</glyph>
<glyph name="ae" format="1">
  <advance width="1667"/>
  <unicode hex="00E6"/>
  <outline>
    <contour>
      <point x="429" y="-24" type="curve" smooth="yes"/>
      <point x="640" y="-24"/>
      <point x="782" y="53"/>
      <point x="832" y="224" type="curve"/>
      <point x="886" y="47"/>
      <point x="1055" y="-24"/>
      <point x="1195" y="-24" type="curve" smooth="yes"/>
      <point x="1380" y="-23"/>
      <point x="1515" y="83"/>
      <point x="1570" y="234" type="curve"/>
      <point x="1479" y="274" type="line"/>
      <point x="1449" y="200"/>
      <point x="1378" y="73"/>
      <point x="1199" y="73" type="curve" smooth="yes"/>
      <point x="987" y="72"/>
      <point x="903" y="250"/>
      <point x="897" y="496" type="curve"/>
      <point x="1583" y="508" type="line"/>
      <point x="1585" y="525"/>
      <point x="1586" y="563"/>
      <point x="1586" y="572" type="curve" smooth="yes"/>
      <point x="1586" y="844"/>
      <point x="1478" y="1044"/>
      <point x="1193" y="1044" type="curve" smooth="yes"/>
      <point x="1046" y="1044"/>
      <point x="911" y="967"/>
      <point x="848" y="810" type="curve"/>
      <point x="805" y="974"/>
      <point x="701" y="1044"/>
      <point x="518" y="1044" type="curve" smooth="yes"/>
      <point x="366" y="1044"/>
      <point x="248" y="1006"/>
      <point x="134" y="927" type="curve"/>
      <point x="185" y="844" type="line"/>
      <point x="272" y="900"/>
      <point x="366" y="953"/>
      <point x="530" y="947" type="curve" smooth="yes"/>
      <point x="726" y="940"/>
      <point x="761" y="846"/>
      <point x="764" y="581" type="curve"/>
      <point x="559" y="578" type="line" smooth="yes"/>
      <point x="254" y="573"/>
      <point x="75" y="503"/>
      <point x="85" y="252" type="curve" smooth="yes"/>
      <point x="93" y="59"/>
      <point x="240" y="-24"/>
    </contour>
    <contour>
      <point x="440" y="73" type="curve" smooth="yes"/>
      <point x="310" y="72"/>
      <point x="227" y="129"/>
      <point x="220" y="257" type="curve" smooth="yes"/>
      <point x="209" y="440"/>
      <point x="346" y="479"/>
      <point x="565" y="484" type="curve" smooth="yes"/>
      <point x="764" y="488" type="line"/>
      <point x="764" y="419" type="line" smooth="yes"/>
      <point x="764" y="149"/>
      <point x="646" y="73"/>
    </contour>
    <contour>
      <point x="898" y="587" type="line"/>
      <point x="905" y="806"/>
      <point x="1020" y="947"/>
      <point x="1197" y="947" type="curve" smooth="yes"/>
      <point x="1378" y="947"/>
      <point x="1460" y="837"/>
      <point x="1470" y="598" type="curve"/>
    </contour>
    <contour>
      <point x="884" y="1023" type="move" name="top"/>
    </contour>
  </outline>
</glyph>
<glyph name="eth" format="1">
  <advance width="1053"/>
  <unicode hex="00F0"/>
  <outline>
    <contour>
      <point x="518" y="-24" type="curve" smooth="yes"/>
      <point x="834" y="-24"/>
      <point x="956" y="213"/>
      <point x="956" y="529" type="curve" smooth="yes"/>
      <point x="956" y="775"/>
      <point x="900" y="1047"/>
      <point x="725" y="1227" type="curve"/>
      <point x="918" y="1353" type="line"/>
      <point x="868" y="1424" type="line"/>
      <point x="658" y="1287" type="line"/>
      <point x="541" y="1377"/>
      <point x="381" y="1432"/>
      <point x="169" y="1432" type="curve"/>
      <point x="169" y="1343" type="line"/>
      <point x="340" y="1343"/>
      <point x="468" y="1296"/>
      <point x="563" y="1225" type="curve"/>
      <point x="382" y="1107" type="line"/>
      <point x="432" y="1036" type="line"/>
      <point x="632" y="1166" type="line"/>
      <point x="746" y="1050"/>
      <point x="797" y="896"/>
      <point x="813" y="772" type="curve"/>
      <point x="732" y="867"/>
      <point x="618" y="909"/>
      <point x="503" y="908" type="curve" smooth="yes"/>
      <point x="295" y="906"/>
      <point x="97" y="746"/>
      <point x="97" y="454" type="curve" smooth="yes"/>
      <point x="97" y="208"/>
      <point x="232" y="-24"/>
    </contour>
    <contour>
      <point x="526" y="80" type="curve" smooth="yes"/>
      <point x="358" y="79"/>
      <point x="232" y="212"/>
      <point x="232" y="441" type="curve" smooth="yes"/>
      <point x="232" y="675"/>
      <point x="365" y="803"/>
      <point x="523" y="803" type="curve" smooth="yes"/>
      <point x="630" y="803"/>
      <point x="727" y="753"/>
      <point x="819" y="655" type="curve"/>
      <point x="825" y="629"/>
      <point x="826" y="535"/>
      <point x="826" y="511" type="curve" smooth="yes"/>
      <point x="826" y="257"/>
      <point x="739" y="81"/>
    </contour>
  </outline>
</glyph>
<glyph name="Hbar" format="1">
  <advance width="1457"/>
  <unicode hex="0126"/>
  <outline>
    <contour>
      <point x="48" y="1144" type="line"/>
      <point x="1394" y="1144" type="line"/>
      <point x="1394" y="1228" type="line"/>
      <point x="48" y="1228" type="line"/>
    </contour>
    <component base="H"/>
  </outline>
</glyph>
<glyph name="kgreenlandic" format="1">
  <advance width="1010"/>
  <unicode hex="0138"/>
  <outline>
    <contour>
      <point x="861" y="0" type="line"/>
      <point x="1013" y="0" type="line"/>
      <point x="580" y="606" type="line"/>
      <point x="954" y="1023" type="line"/>
      <point x="800" y="1023" type="line"/>
      <point x="203" y="371" type="line"/>
      <point x="203" y="237" type="line"/>
      <point x="489" y="533" type="line"/>
    </contour>
    <component base="lc_main_stem"/>
  </outline>
</glyph>
<glyph name="eng" format="1">
  <advance width="1084"/>
  <unicode hex="014B"/>
  <outline>
    <contour>
      <point x="533" y="-410" type="line"/>
      <point x="815" y="-407"/>
      <point x="959" y="-219"/>
      <point x="959" y="-21" type="curve" smooth="yes"/>
      <point x="959" y="230" type="line"/>
      <point x="824" y="230" type="line"/>
      <point x="824" y="-25" type="line"/>
      <point x="824" y="-167"/>
      <point x="733" y="-309"/>
      <point x="532" y="-308" type="curve"/>
    </contour>
    <component base="n"/>
  </outline>
</glyph>
<glyph name="oe" format="1">
  <advance width="2100"/>
  <unicode hex="0153"/>
  <outline>
    <contour>
      <point x="559" y="-24" type="curve" smooth="yes"/>
      <point x="733" y="-24"/>
      <point x="860" y="77"/>
      <point x="920" y="242" type="curve"/>
      <point x="990" y="81"/>
      <point x="1113" y="-24"/>
      <point x="1308" y="-24" type="curve" smooth="yes"/>
      <point x="1465" y="-23"/>
      <point x="1632" y="65"/>
      <point x="1679" y="243" type="curve"/>
      <point x="1577" y="266" type="line"/>
      <point x="1542" y="155"/>
      <point x="1445" y="73"/>
      <point x="1305" y="73" type="curve" smooth="yes"/>
      <point x="1090" y="73"/>
      <point x="994" y="266"/>
      <point x="994" y="503" type="curve"/>
      <point x="1700" y="503" type="line"/>
      <point x="1702" y="520"/>
      <point x="1703" y="552"/>
      <point x="1703" y="561" type="curve" smooth="yes"/>
      <point x="1703" y="833"/>
      <point x="1583" y="1044"/>
      <point x="1298" y="1044" type="curve" smooth="yes"/>
      <point x="1118" y="1044"/>
      <point x="979" y="930"/>
      <point x="919" y="775" type="curve"/>
      <point x="865" y="940"/>
      <point x="732" y="1044"/>
      <point x="559" y="1044" type="curve" smooth="yes"/>
      <point x="296" y="1044"/>
      <point x="121" y="859"/>
      <point x="121" y="510" type="curve" smooth="yes"/>
      <point x="121" y="160"/>
      <point x="296" y="-24"/>
    </contour>
    <contour>
      <point x="559" y="72" type="curve" smooth="yes"/>
      <point x="322" y="72"/>
      <point x="259" y="297"/>
      <point x="259" y="510" type="curve" smooth="yes"/>
      <point x="259" y="723"/>
      <point x="322" y="948"/>
      <point x="559" y="948" type="curve" smooth="yes"/>
      <point x="795" y="948"/>
      <point x="858" y="723"/>
      <point x="858" y="510" type="curve" smooth="yes"/>
      <point x="858" y="297"/>
      <point x="795" y="72"/>
    </contour>
    <contour>
      <point x="994" y="593" type="line"/>
      <point x="1011" y="788"/>
      <point x="1110" y="947"/>
      <point x="1297" y="947" type="curve" smooth="yes"/>
      <point x="1496" y="947"/>
      <point x="1574" y="810"/>
      <point x="1577" y="593" type="curve"/>
    </contour>
    <contour>
      <point x="1616" y="1023" type="move" name="top"/>
    </contour>
    <contour>
      <point x="1716" y="0" type="move" name="ogonek"/>
    </contour>
  </outline>
</glyph>
<glyph name="tbar" format="1">
  <advance width="652"/>
  <unicode hex="0167"/>
  <outline>
    <contour>
      <point x="65" y="534" type="line"/>
      <point x="519" y="534" type="line"/>
      <point x="519" y="629" type="line"/>
      <point x="65" y="629" type="line"/>
    </contour>
    <component base="t"/>
  </outline>
</glyph>
<glyph name="caron" format="1">
  <advance width="838"/>
  <unicode hex="02C7"/>
  <outline>
    <contour>
      <point x="341" y="1154" type="line"/>
      <point x="508" y="1154" type="line"/>
      <point x="696" y="1474" type="line"/>
      <point x="604" y="1474" type="line"/>
      <point x="424" y="1218" type="line"/>
      <point x="246" y="1474" type="line"/>
      <point x="153" y="1474" type="line"/>
    </contour>
    <contour>
      <point x="427" y="1023" type="move" name="_top"/>
    </contour>
  </outline>
</glyph>
<glyph name="uni02C9" format="1">
  <advance width="600"/>
  <unicode hex="02C9"/>
  <outline>
    <contour>
      <point x="136" y="1261" type="line"/>
      <point x="590" y="1261" type="line"/>
      <point x="590" y="1356" type="line"/>
      <point x="136" y="1356" type="line"/>
    </contour>
    <contour>
      <point x="359" y="1023" type="move" name="_top"/>
    </contour>
  </outline>
</glyph>
<glyph name="breve" format="1">
  <advance width="805"/>
  <unicode hex="02D8"/>
  <outline>
    <contour>
      <point x="399" y="1248" type="curve" smooth="yes"/>
      <point x="547" y="1248"/>
      <point x="670" y="1322"/>
      <point x="674" y="1500" type="curve"/>
      <point x="564" y="1500" type="line"/>
      <point x="564" y="1389"/>
      <point x="499" y="1345"/>
      <point x="399" y="1345" type="curve" smooth="yes"/>
      <point x="299" y="1345"/>
      <point x="233" y="1389"/>
      <point x="233" y="1500" type="curve"/>
      <point x="123" y="1500" type="line"/>
      <point x="127" y="1322"/>
      <point x="251" y="1248"/>
    </contour>
    <contour>
      <point x="403" y="1023" type="move" name="_top"/>
    </contour>
  </outline>
</glyph>
<glyph name="ogonek" format="1">
  <advance width="462"/>
  <unicode hex="02DB"/>
  <outline>
    <contour>
      <point x="341" y="-359" type="curve"/>
      <point x="341" y="-282" type="line"/>
      <point x="258" y="-301"/>
      <point x="229" y="-270"/>
      <point x="229" y="-221" type="curve" smooth="yes"/>
      <point x="229" y="-163"/>
      <point x="277" y="-73"/>
      <point x="311" y="0" type="curve"/>
      <point x="243" y="0" type="line"/>
      <point x="178" y="-90"/>
      <point x="120" y="-167"/>
      <point x="117" y="-241" type="curve" smooth="yes"/>
      <point x="114" y="-321"/>
      <point x="187" y="-397"/>
    </contour>
    <contour>
      <point x="280" y="0" type="move" name="_ogonek"/>
    </contour>
  </outline>
</glyph>
<glyph name="commaturnedabovecomb" format="1">
  <advance width="600"/>
  <unicode hex="0312"/>
  <outline>
    <contour>
      <point x="216" y="1195" type="line"/>
      <point x="431" y="1195" type="line"/>
      <point x="431" y="1380" type="line"/>
      <point x="339" y="1393" type="line"/>
      <point x="343" y="1518"/>
      <point x="394" y="1584"/>
      <point x="418" y="1603" type="curve"/>
      <point x="360" y="1662" type="line"/>
      <point x="218" y="1570"/>
      <point x="221" y="1428"/>
      <point x="216" y="1274" type="curve"/>
    </contour>
    <contour>
      <point x="320" y="1023" type="move" name="_top"/>
    </contour>
  </outline>
</glyph>
<glyph name="Omega" format="1">
  <advance width="1758"/>
  <unicode hex="03A9"/>
  <outline>
    <contour>
      <point x="122" y="0" type="line"/>
      <point x="754" y="0" type="line"/>
      <point x="754" y="103" type="line"/>
      <point x="454" y="232"/>
      <point x="300" y="508"/>
      <point x="300" y="779" type="curve"/>
      <point x="300" y="1155"/>
      <point x="591" y="1344"/>
      <point x="879" y="1344" type="curve"/>
      <point x="1168" y="1344"/>
      <point x="1458" y="1155"/>
      <point x="1458" y="779" type="curve"/>
      <point x="1458" y="508"/>
      <point x="1304" y="232"/>
      <point x="1004" y="103" type="curve"/>
      <point x="1004" y="0" type="line"/>
      <point x="1637" y="0" type="line"/>
      <point x="1637" y="100" type="line"/>
      <point x="1155" y="100" type="line"/>
      <point x="1459" y="248"/>
      <point x="1609" y="520"/>
      <point x="1609" y="779" type="curve"/>
      <point x="1609" y="1255"/>
      <point x="1245" y="1491"/>
      <point x="879" y="1491" type="curve"/>
      <point x="513" y="1491"/>
      <point x="149" y="1255"/>
      <point x="149" y="779" type="curve"/>
      <point x="149" y="520"/>
      <point x="299" y="248"/>
      <point x="603" y="100" type="curve"/>
      <point x="122" y="100" type="line"/>
    </contour>
  </outline>
</glyph>
<glyph name="quoteleft" format="1">
  <advance width="330"/>
  <unicode hex="2018"/>
  <outline>
    <contour>
      <point x="31" y="992" type="line"/>
      <point x="228" y="992" type="line"/>
      <point x="228" y="1014"/>
      <point x="228" y="1035"/>
      <point x="228" y="1057" type="curve" smooth="yes"/>
      <point x="228" y="1100"/>
      <point x="228" y="1144"/>
      <point x="228" y="1187" type="curve"/>
      <point x="134" y="1200" type="line"/>
      <point x="134" y="1298"/>
      <point x="155" y="1336"/>
      <point x="212" y="1432" type="curve"/>
      <point x="211" y="1432"/>
      <point x="145" y="1468"/>
      <point x="145" y="1469" type="curve"/>
      <point x="33" y="1374"/>
      <point x="31" y="1244"/>
      <point x="31" y="1103" type="curve" smooth="yes"/>
      <point x="31" y="1099"/>
      <point x="31" y="1094"/>
      <point x="31" y="1089" type="curve" smooth="yes"/>
    </contour>
  </outline>
</glyph>
<glyph name="quoteright" format="1">
  <advance width="330"/>
  <unicode hex="2019"/>
  <outline>
    <contour>
      <point x="160" y="991" type="line"/>
      <point x="331" y="1104"/>
      <point x="307" y="1284"/>
      <point x="311" y="1464" type="curve"/>
      <point x="89" y="1464" type="line"/>
      <point x="89" y="1292" type="line" smooth="yes"/>
      <point x="89" y="1291"/>
      <point x="179" y="1273"/>
      <point x="179" y="1274" type="curve"/>
      <point x="176" y="1154"/>
      <point x="125" y="1088"/>
      <point x="100" y="1065" type="curve"/>
    </contour>
  </outline>
</glyph>
<glyph name="dagger" format="1">
  <advance width="1119"/>
  <unicode hex="2020"/>
  <outline>
    <contour>
      <point x="497" y="0" type="line"/>
      <point x="635" y="0" type="line"/>
      <point x="635" y="965" type="line"/>
      <point x="978" y="965" type="line"/>
      <point x="978" y="1071" type="line"/>
      <point x="635" y="1071" type="line"/>
      <point x="635" y="1464" type="line"/>
      <point x="497" y="1464" type="line"/>
      <point x="497" y="1071" type="line"/>
      <point x="139" y="1071" type="line"/>
      <point x="139" y="965" type="line"/>
      <point x="497" y="965" type="line"/>
    </contour>
  </outline>
</glyph>
<glyph name="foursuperior" format="1">
  <advance width="1461"/>
  <unicode hex="2074"/>
  <outline>
    <contour>
      <point x="934" y="1035" type="line"/>
      <point x="934" y="1529" type="line"/>
      <point x="737" y="1465" type="line"/>
      <point x="364" y="945" type="line"/>
      <point x="364" y="934" type="line"/>
      <point x="735" y="934" type="line"/>
      <point x="735" y="777" type="line"/>
      <point x="877" y="777" type="line"/>
      <point x="877" y="968" type="line"/>
      <point x="1001" y="968" type="line"/>
      <point x="1001" y="1035" type="line"/>
    </contour>
    <contour>
      <point x="504" y="1024" type="line"/>
      <point x="764" y="1356" type="line"/>
      <point x="794" y="1024" type="line"/>
    </contour>
  </outline>
</glyph>
<glyph name="uni2113" format="1">
  <advance width="940"/>
  <unicode hex="2113"/>
  <outline>
    <contour>
      <point x="449" y="856" type="line"/>
      <point x="449" y="254" type="line" smooth="yes"/>
      <point x="449" y="104"/>
      <point x="502" y="84"/>
      <point x="576" y="84" type="curve" smooth="yes"/>
      <point x="611" y="84"/>
      <point x="668" y="98"/>
      <point x="716" y="118" type="curve"/>
      <point x="741" y="32" type="line"/>
      <point x="676" y="1"/>
      <point x="606" y="-16"/>
      <point x="541" y="-16" type="curve" smooth="yes"/>
      <point x="380" y="-16"/>
      <point x="314" y="61"/>
      <point x="314" y="298" type="curve" smooth="yes"/>
      <point x="314" y="762" type="line"/>
      <point x="167" y="645" type="line"/>
      <point x="104" y="736" type="line"/>
      <point x="314" y="906" type="line"/>
      <point x="314" y="1223" type="line" smooth="yes"/>
      <point x="314" y="1451"/>
      <point x="414" y="1547"/>
      <point x="570" y="1547" type="curve" smooth="yes"/>
      <point x="705" y="1547"/>
      <point x="803" y="1465"/>
      <point x="803" y="1333" type="curve" smooth="yes"/>
      <point x="803" y="1218"/>
      <point x="733" y="1083"/>
      <point x="585" y="964" type="curve" smooth="yes"/>
    </contour>
    <contour>
      <point x="427" y="970" type="curve"/>
      <point x="427" y="964"/>
      <point x="496" y="1012"/>
      <point x="501" y="1012" type="curve" smooth="yes"/>
      <point x="635" y="1112"/>
      <point x="686" y="1240"/>
      <point x="686" y="1326" type="curve" smooth="yes"/>
      <point x="686" y="1394"/>
      <point x="645" y="1461"/>
      <point x="586" y="1461" type="curve" smooth="yes"/>
      <point x="509" y="1461"/>
      <point x="443" y="1404"/>
      <point x="443" y="1259" type="curve" smooth="yes"/>
      <point x="432" y="1250"/>
      <point x="427" y="977"/>
    </contour>
  </outline>
</glyph>
<glyph name="partialdiff" format="1">
  <advance width="1136"/>
  <unicode hex="2202"/>
  <outline>
    <contour>
      <point x="508" y="-24" type="curve" smooth="yes"/>
      <point x="824" y="-24"/>
      <point x="970" y="213"/>
      <point x="1004" y="529" type="curve" smooth="yes"/>
      <point x="1010" y="581"/>
      <point x="1013" y="636"/>
      <point x="1013" y="689" type="curve" smooth="yes"/>
      <point x="1013" y="1061"/>
      <point x="863" y="1432"/>
      <point x="312" y="1432" type="curve"/>
      <point x="303" y="1343" type="line"/>
      <point x="762" y="1343"/>
      <point x="882" y="1006"/>
      <point x="887" y="772" type="curve"/>
      <point x="816" y="866"/>
      <point x="709" y="908"/>
      <point x="595" y="908" type="curve" smooth="yes"/>
      <point x="386" y="908"/>
      <point x="167" y="748"/>
      <point x="137" y="454" type="curve" smooth="yes"/>
      <point x="135" y="431"/>
      <point x="133" y="409"/>
      <point x="133" y="385" type="curve" smooth="yes"/>
      <point x="133" y="167"/>
      <point x="250" y="-24"/>
    </contour>
    <contour>
      <point x="525" y="80" type="curve" smooth="yes"/>
      <point x="373" y="80"/>
      <point x="267" y="191"/>
      <point x="267" y="382" type="curve" smooth="yes"/>
      <point x="267" y="401"/>
      <point x="268" y="420"/>
      <point x="270" y="441" type="curve" smooth="yes"/>
      <point x="295" y="675"/>
      <point x="442" y="803"/>
      <point x="600" y="803" type="curve" smooth="yes"/>
      <point x="707" y="803"/>
      <point x="799" y="753"/>
      <point x="880" y="655" type="curve"/>
      <point x="881" y="651"/>
      <point x="881" y="645"/>
      <point x="881" y="637" type="curve" smooth="yes"/>
      <point x="881" y="598"/>
      <point x="875" y="531"/>
      <point x="873" y="511" type="curve" smooth="yes"/>
      <point x="846" y="257"/>
      <point x="739" y="80"/>
    </contour>
  </outline>
</glyph>
<glyph name="emptyset" format="1">
  <advance width="1702"/>
  <unicode hex="2205"/>
  <outline>
    <contour>
      <point x="256" y="-55" type="line"/>
      <point x="402" y="117" type="line"/>
      <point x="525" y="26"/>
      <point x="681" y="-25"/>
      <point x="850" y="-25" type="curve" smooth="yes"/>
      <point x="1251" y="-25"/>
      <point x="1579" y="297"/>
      <point x="1579" y="696" type="curve" smooth="yes"/>
      <point x="1579" y="907"/>
      <point x="1488" y="1096"/>
      <point x="1344" y="1228" type="curve"/>
      <point x="1497" y="1408" type="line"/>
      <point x="1439" y="1449" type="line"/>
      <point x="1290" y="1272" type="line"/>
      <point x="1168" y="1365"/>
      <point x="1015" y="1419"/>
      <point x="850" y="1419" type="curve" smooth="yes"/>
      <point x="451" y="1419"/>
      <point x="123" y="1127"/>
      <point x="123" y="696" type="curve" smooth="yes"/>
      <point x="123" y="469"/>
      <point x="211" y="283"/>
      <point x="352" y="157" type="curve"/>
      <point x="205" y="-17" type="line"/>
    </contour>
    <contour>
      <point x="394" y="208" type="line"/>
      <point x="272" y="325"/>
      <point x="198" y="493"/>
      <point x="198" y="695" type="curve" smooth="yes"/>
      <point x="198" y="1079"/>
      <point x="480" y="1360"/>
      <point x="850" y="1360" type="curve" smooth="yes"/>
      <point x="1002" y="1360"/>
      <point x="1139" y="1308"/>
      <point x="1248" y="1222" type="curve"/>
    </contour>
    <contour>
      <point x="849" y="34" type="curve" smooth="yes"/>
      <point x="694" y="34"/>
      <point x="553" y="81"/>
      <point x="443" y="166" type="curve"/>
      <point x="1301" y="1177" type="line"/>
      <point x="1427" y="1053"/>
      <point x="1504" y="880"/>
      <point x="1504" y="695" type="curve" smooth="yes"/>
      <point x="1504" y="342"/>
      <point x="1220" y="34"/>
    </contour>
  </outline>
</glyph>
<glyph name="summation" format="1">
  <advance width="1294"/>
  <unicode hex="2211"/>
  <outline>
    <contour>
      <point x="161" y="-18" type="line"/>
      <point x="1142" y="-18" type="line" smooth="yes"/>
      <point x="1142" y="92" type="line" smooth="yes"/>
      <point x="300" y="92" type="line" smooth="yes"/>
      <point x="861" y="680" type="line" smooth="yes"/>
      <point x="861" y="789" type="line" smooth="yes"/>
      <point x="303" y="1387" type="line" smooth="yes"/>
      <point x="1142" y="1387" type="line" smooth="yes"/>
      <point x="1142" y="1491" type="line" smooth="yes"/>
      <point x="161" y="1491" type="line" smooth="yes"/>
      <point x="161" y="1380" type="line" smooth="yes"/>
      <point x="736" y="737" type="line" smooth="yes"/>
      <point x="161" y="110" type="line" smooth="yes"/>
    </contour>
  </outline>
</glyph>
<glyph name="notequal" format="1">
  <advance width="894"/>
  <unicode hex="2260"/>
  <outline>
    <contour>
      <point x="352" y="299" type="line"/>
      <point x="460" y="560" type="line"/>
      <point x="846" y="560" type="line"/>
      <point x="846" y="655" type="line"/>
      <point x="499" y="655" type="line"/>
      <point x="563" y="810" type="line"/>
      <point x="846" y="810" type="line"/>
      <point x="846" y="905" type="line"/>
      <point x="603" y="905" type="line"/>
      <point x="697" y="1133" type="line"/>
      <point x="586" y="1159" type="line"/>
      <point x="484" y="905" type="line"/>
      <point x="48" y="905" type="line"/>
      <point x="48" y="810" type="line"/>
      <point x="445" y="810" type="line"/>
      <point x="382" y="655" type="line"/>
      <point x="48" y="655" type="line"/>
      <point x="48" y="560" type="line"/>
      <point x="343" y="560" type="line"/>
      <point x="248" y="325" type="line"/>
    </contour>
  </outline>
</glyph>
<glyph name="greaterequal" format="1">
  <advance width="1051"/>
  <unicode hex="2265"/>
  <outline>
    <contour>
      <point x="53" y="231" type="line"/>
      <point x="1002" y="551" type="line"/>
      <point x="1002" y="670" type="line"/>
      <point x="53" y="964" type="line"/>
      <point x="53" y="833" type="line"/>
      <point x="848" y="617" type="line"/>
      <point x="53" y="377" type="line"/>
    </contour>
    <contour>
      <point x="55" y="0" type="line"/>
      <point x="1014" y="0" type="line"/>
      <point x="1014" y="110" type="line"/>
      <point x="55" y="110" type="line"/>
    </contour>
  </outline>
</glyph>
<glyph name="lc_ascender_stem_3" format="1">
  <advance width="1078"/>
  <outline>
    <contour>
      <point x="871" y="0" type="line"/>
      <point x="976" y="0" type="line"/>
      <point x="976" y="1474" type="line"/>
      <point x="841" y="1474" type="line"/>
      <point x="841" y="760" type="line"/>
    </contour>
  </outline>
</glyph>
<glyph name="lc_curved_stem" format="1">
  <advance width="1086"/>
  <outline>
    <contour>
      <point x="826" y="0" type="line"/>
      <point x="961" y="0" type="line"/>
      <point x="961" y="583" type="line" smooth="yes"/>
      <point x="961" y="789"/>
      <point x="944" y="1044"/>
      <point x="621" y="1044" type="curve" smooth="yes"/>
      <point x="369" y="1044"/>
      <point x="223" y="885"/>
      <point x="202" y="609" type="curve"/>
      <point x="263" y="500" type="line" smooth="yes"/>
      <point x="263" y="752"/>
      <point x="340" y="947"/>
      <point x="603" y="947" type="curve" smooth="yes"/>
      <point x="783" y="947"/>
      <point x="826" y="813"/>
      <point x="826" y="603" type="curve" smooth="yes"/>
    </contour>
    <contour>
      <point x="649" y="1141" type="move" name="top"/>
    </contour>
  </outline>
</glyph>
<glyph name="lc_descender_stem" format="1">
  <advance width="1057"/>
  <outline>
    <contour>
      <point x="134" y="-348" type="line"/>
      <point x="269" y="-348" type="line"/>
      <point x="268" y="802" type="line"/>
      <point x="250" y="1023" type="line"/>
      <point x="134" y="1023" type="line"/>
    </contour>
  </outline>
</glyph>
<glyph name="lc_descender_stem_2" format="1">
  <advance width="1057"/>
  <outline>
    <contour>
      <point x="134" y="-350" type="line"/>
      <point x="269" y="-350" type="line"/>
      <point x="269" y="1023" type="line"/>
      <point x="153" y="1023" type="line"/>
      <point x="135" y="802" type="line"/>
    </contour>
  </outline>
</glyph>
<glyph name="lc_main_stem" format="1">
  <advance width="1086"/>
  <outline>
    <contour>
      <point x="131" y="0" type="line"/>
      <point x="266" y="0" type="line"/>
      <point x="265" y="1023" type="line"/>
      <point x="131" y="1023" type="line"/>
    </contour>
  </outline>
</glyph>
<glyph name="uc_main_stem" format="1">
  <advance width="1457"/>
  <outline>
    <contour>
      <point x="152" y="0" type="line"/>
      <point x="291" y="0" type="line"/>
      <point x="291" y="1464" type="line"/>
      <point x="152" y="1464" type="line"/>
    </contour>
  </outline>
</glyph>
